<svg width="152" height="32" viewBox="0 0 152 32" fill="none" xmlns="http://www.w3.org/2000/svg">
<path d="M32.8383 4.47199C37.5289 4.36951 41.6121 8.53687 41.5109 13.2849V21.8248H38.2035V19.1263C37.3936 20.8 35.1664 22.0981 32.8383 22.0981C28.1476 22.2005 24.0307 18.0332 24.1319 13.2851C24.0303 8.53703 28.1473 4.36967 32.8383 4.47199ZM32.872 7.71703C29.8011 7.71703 27.4389 10.1765 27.4389 13.285C27.4389 16.3936 29.8349 18.853 32.872 18.853C35.9091 18.853 38.2376 16.3937 38.2376 13.285C38.2376 10.1764 35.9425 7.71719 32.8717 7.71719L32.872 7.71703Z" fill="#0137F3"/>
<path d="M56.7285 18.5798V21.8248H43.1966V18.5798L52.2063 7.9905H43.669V4.74546H56.4248V7.9905L47.381 18.5798H56.7285Z" fill="#0137F3"/>
<path d="M65.94 4.47199C70.6307 4.36951 74.7139 8.53687 74.6127 13.2849V21.8248H71.3056V19.1263C70.4957 20.8 68.2684 22.0981 65.94 22.0981C61.2494 22.2005 57.1325 18.0332 57.2337 13.2851C57.1328 8.53703 61.2494 4.36967 65.94 4.47199ZM65.9738 7.71703C62.903 7.71703 60.5408 10.1765 60.5408 13.285C60.5408 16.3936 62.9367 18.853 65.9738 18.853C69.0109 18.853 71.3394 16.3937 71.3394 13.285C71.3394 10.1764 69.0447 7.71719 65.9738 7.71719V7.71703Z" fill="#0137F3"/>
<path d="M76.9728 12.9094C76.9728 7.44399 79.7737 4.67735 84.0594 4.67735H84.3968V7.92215H84.0594C81.6297 7.92215 80.2798 9.52759 80.2798 12.9094V21.8248H76.9728V12.9094Z" fill="#0137F3"/>
<path d="M93.9462 4.47199C98.637 4.36951 102.72 8.53687 102.619 13.2849V21.8248H99.3117V19.1263C98.5017 20.8001 96.2745 22.0981 93.9461 22.0981C89.2554 22.2005 85.1385 18.0332 85.2397 13.2851C85.1387 8.53703 89.2556 4.36967 93.9462 4.47199ZM93.9801 7.71703C90.9092 7.71703 88.547 10.1765 88.547 13.285C88.547 16.3936 90.9429 18.853 93.9801 18.853C97.0172 18.853 99.3456 16.3937 99.3456 13.285C99.3456 10.1764 97.0509 7.71719 93.9801 7.71719V7.71703Z" fill="#0137F3"/>
<path d="M130.903 21.8248H127.596V12.8408C127.596 9.42478 126.179 7.71694 123.581 7.71694C121.016 7.71694 119.565 9.42494 119.565 12.8408V21.8248H116.258V12.8408C116.258 9.42478 114.841 7.71694 112.242 7.71694C109.677 7.71694 108.226 9.42494 108.226 12.8408V21.8248H104.919V12.8408C104.919 7.34118 107.821 4.4719 112.242 4.4719C114.773 4.4719 116.832 5.56494 117.911 7.6487C118.991 5.56494 121.05 4.4719 123.581 4.4719C128.001 4.4719 130.903 7.34118 130.903 12.8408V21.8248Z" fill="#0137F3"/>
<path d="M141.463 4.47199C146.154 4.36951 150.237 8.53687 150.136 13.2849V21.8248H146.829V19.1263C146.019 20.8001 143.792 22.0981 141.463 22.0981C136.773 22.2005 132.656 18.0332 132.757 13.2851C132.655 8.53703 136.773 4.36967 141.463 4.47199ZM141.497 7.71703C138.426 7.71703 136.064 10.1765 136.064 13.285C136.064 16.3936 138.46 18.853 141.497 18.853C144.534 18.853 146.863 16.3937 146.863 13.285C146.863 10.1764 144.568 7.71719 141.497 7.71719V7.71703Z" fill="#0137F3"/>
<path d="M13.3142 4.42402C11.0159 4.42669 8.81238 5.35207 7.18719 6.99716C5.562 8.64225 4.64781 10.8727 4.64517 13.1992C4.64517 13.2986 4.64944 13.3971 4.6526 13.4956C4.69567 14.3497 4.92828 15.1829 5.33314 15.9334C5.738 16.684 6.30472 17.3326 6.99118 17.831C7.67765 18.3294 8.46624 18.6649 9.29836 18.8124C10.1305 18.96 10.9848 18.9159 11.7977 18.6835C10.7889 18.3976 9.87882 17.8324 9.17012 17.0513C8.46142 16.2703 7.9822 15.3045 7.78641 14.2627C7.59063 13.2209 7.68606 12.1444 8.06195 11.1546C8.43784 10.1647 9.07928 9.30068 9.91403 8.65984C10.7488 8.019 11.7437 7.62678 12.7867 7.52734C13.8298 7.4279 14.8795 7.62519 15.8178 8.09699C16.7561 8.5688 17.5456 9.29638 18.0975 10.1978C18.6494 11.0992 18.9417 12.1387 18.9415 13.1992V13.2017C18.9386 15.2598 18.2222 17.2516 16.9172 18.8298C15.6122 20.408 13.8013 21.4725 11.8004 21.8376C12.9843 22.0503 14.199 22.0114 15.3673 21.7232C16.5356 21.4351 17.6319 20.9041 18.5865 20.1639C19.5411 19.4237 20.3331 18.4906 20.9121 17.4238C21.4912 16.3571 21.8447 15.18 21.9501 13.9675C22.0555 12.755 21.9105 11.5336 21.5244 10.3808C21.1383 9.22811 20.5195 8.16931 19.7073 7.27174C18.8951 6.37418 17.9073 5.65749 16.8066 5.16723C15.706 4.67697 14.5167 4.42387 13.3142 4.42402Z" fill="#FF0C87"/>
<path d="M18.9349 12.9025C18.8919 12.0485 18.6593 11.2152 18.2544 10.4647C17.8495 9.71412 17.2828 9.06555 16.5964 8.56713C15.9099 8.06871 15.1213 7.73325 14.2892 7.58566C13.4571 7.43808 12.6028 7.48217 11.7898 7.71465C12.7987 8.00046 13.7087 8.5657 14.4175 9.34673C15.1262 10.1278 15.6054 11.0936 15.8012 12.1354C15.997 13.1772 15.9016 14.2536 15.5257 15.2435C15.1498 16.2334 14.5084 17.0974 13.6736 17.7383C12.8389 18.3791 11.844 18.7713 10.8009 18.8708C9.75786 18.9702 8.70809 18.7729 7.76981 18.3011C6.83154 17.8293 6.04201 17.1017 5.49014 16.2003C4.93827 15.2989 4.64597 14.2594 4.64615 13.1989V13.1964C4.64901 11.1383 5.36541 9.14651 6.67043 7.56831C7.97546 5.99011 9.78632 4.92563 11.7873 4.56049C10.5401 4.33491 9.25919 4.38911 8.03495 4.71926C6.81071 5.04941 5.67295 5.64746 4.70194 6.47123C3.73093 7.295 2.95032 8.32441 2.41519 9.48685C1.88005 10.6493 1.60343 11.9164 1.60483 13.1989V13.2014V27.576H4.91328V20.088C6.19066 21.1088 7.72628 21.7446 9.34419 21.9227C10.9621 22.1007 12.5968 21.8138 14.0611 21.0948C15.5253 20.3758 16.7598 19.2537 17.6232 17.8572C18.4865 16.4608 18.9437 14.8463 18.9424 13.199C18.9424 13.0995 18.9382 13.001 18.9349 12.9025Z" fill="#0137F3"/>
</svg>
