<svg width="32" height="20" viewBox="0 0 32 20" fill="none" xmlns="http://www.w3.org/2000/svg">
<g clip-path="url(#clip0_1_2233)">
<path d="M24.9275 3.3975C24.6931 3.1162 24.3996 2.88996 24.0679 2.73485C23.7363 2.57973 23.3745 2.49955 23.0083 2.5H9.535L9.5 2.2075C9.42837 1.59951 9.13615 1.03894 8.67874 0.632065C8.22133 0.225186 7.63052 0.000284828 7.01833 0L6.83333 0C6.61232 0 6.40036 0.0877974 6.24408 0.244078C6.0878 0.400358 6 0.61232 6 0.833333C6 1.05435 6.0878 1.26631 6.24408 1.42259C6.40036 1.57887 6.61232 1.66667 6.83333 1.66667H7.01833C7.22244 1.66669 7.41945 1.74163 7.57198 1.87726C7.72451 2.0129 7.82195 2.19979 7.84583 2.4025L8.9925 12.1525C9.11154 13.1665 9.59873 14.1015 10.3616 14.78C11.1244 15.4585 12.1099 15.8334 13.1308 15.8333H21.8333C22.0543 15.8333 22.2663 15.7455 22.4226 15.5893C22.5789 15.433 22.6667 15.221 22.6667 15C22.6667 14.779 22.5789 14.567 22.4226 14.4107C22.2663 14.2545 22.0543 14.1667 21.8333 14.1667H13.1308C12.615 14.1652 12.1123 14.0043 11.6916 13.7059C11.2709 13.4075 10.9528 12.9863 10.7808 12.5H20.7142C21.6911 12.5001 22.6369 12.1569 23.3865 11.5304C24.1361 10.9039 24.6417 10.0339 24.815 9.0725L25.4692 5.44417C25.5345 5.08417 25.5198 4.71422 25.4262 4.36053C25.3326 4.00684 25.1623 3.67806 24.9275 3.3975ZM23.8333 5.14833L23.1783 8.77667C23.0743 9.35417 22.7704 9.87666 22.3199 10.2527C21.8694 10.6287 21.301 10.8342 20.7142 10.8333H10.5158L9.73167 4.16667H23.0083C23.1307 4.16594 23.2518 4.19218 23.3629 4.24355C23.4741 4.29491 23.5725 4.37012 23.6513 4.46384C23.73 4.55756 23.7872 4.66748 23.8186 4.78578C23.8501 4.90409 23.8551 5.02787 23.8333 5.14833Z" fill="#1D1E32"/>
<path d="M11.8334 20C12.7538 20 13.5 19.2538 13.5 18.3333C13.5 17.4129 12.7538 16.6667 11.8334 16.6667C10.9129 16.6667 10.1667 17.4129 10.1667 18.3333C10.1667 19.2538 10.9129 20 11.8334 20Z" fill="#1D1E32"/>
<path d="M20.1667 20C21.0871 20 21.8333 19.2538 21.8333 18.3333C21.8333 17.4129 21.0871 16.6667 20.1667 16.6667C19.2462 16.6667 18.5 17.4129 18.5 18.3333C18.5 19.2538 19.2462 20 20.1667 20Z" fill="#1D1E32"/>
</g>
<defs>
<clipPath id="clip0_1_2233">
<rect width="20" height="20" fill="white" transform="translate(6)"/>
</clipPath>
</defs>
</svg>
